<svg id="Layer_1" data-name="Layer 1" xmlns="http://www.w3.org/2000/svg" viewBox="0 0 314.17 102.37"><defs><style>.cls-1{fill:#f25d9c;}.cls-2{fill:#fff;}.cls-3{font-size:57.6px;fill:#420045;font-family:MVBoli, MV Boli;}</style></defs><title>superit</title><path class="cls-1" d="M753.67,509.67h50c3-.15,4.63,1.44,4.66,5v92.66c.07,2.62-1.77,4-4.66,4.67H755c-4.94,0-5.86-.06-6.33-3.67v-94C748.67,512.33,751.37,509.28,753.67,509.67Z" transform="translate(-717.33 -509.63)"/><rect class="cls-2" x="36.33" y="10.7" width="50" height="80"/><rect class="cls-2" x="79.06" y="34.4" width="18.55" height="50.6"/><circle class="cls-2" cx="61.17" cy="96.7" r="3.54"/><path class="cls-1" d="M748.67,597.67H735.33c-4.33.17-17.86-6.36-18-18.67l.34-17.67c-.09-11,23.53-23.5,48.66-35.33,8.87-5,13.34,4,5.34,9.33l-18,14Z" transform="translate(-717.33 -509.63)"/><rect class="cls-1" x="76.5" y="33.53" width="23.67" height="11.83" rx="5.5" ry="5.5"/><rect class="cls-1" x="76.5" y="73.03" width="23.67" height="11.83" rx="5.5" ry="5.5"/><rect class="cls-1" x="76.5" y="59.87" width="23.67" height="11.83" rx="5.5" ry="5.5"/><rect class="cls-1" x="76.5" y="46.7" width="23.67" height="11.83" rx="5.5" ry="5.5"/><text class="cls-3" transform="translate(110.67 62.01) scale(1.01 1)">SuperIt</text></svg>